<svg width="69" height="74" viewBox="0 0 69 74" fill="none" xmlns="http://www.w3.org/2000/svg">
<rect width="69" height="74" fill="#FFFEFE"/>
<path d="M64 42C66.7614 42 69 39.7614 69 37C69 34.2386 66.7614 32 64 32V42ZM1.46447 33.4645C-0.488152 35.4171 -0.488152 38.5829 1.46447 40.5355L33.2843 72.3553C35.2369 74.308 38.4027 74.308 40.3553 72.3553C42.308 70.4027 42.308 67.2369 40.3553 65.2843L12.0711 37L40.3553 8.71573C42.308 6.76311 42.308 3.59728 40.3553 1.64466C38.4027 -0.307961 35.2369 -0.307961 33.2843 1.64466L1.46447 33.4645ZM64 32L5 32V42L64 42V32Z" fill="black"/>
</svg>
